<svg aria-hidden="true" focusable="false" role="img" xmlns="http://www.w3.org/2000/svg" width="45" height="37.1939" viewBox="0 0 45 37.1939"><path d="M9.06888,37.1939a8.14875,8.14875,0,0,1-6.54337-3.2143A11.24907,11.24907,0,0,1,0,26.8622a32.71493,32.71493,0,0,1,1.72194-9.8724,55.2673,55.2673,0,0,1,4.477-10.102A27.55806,27.55806,0,0,1,11.4796,0h7.2321a44.2179,44.2179,0,0,0-3.6734,9.52806,52.25682,52.25682,0,0,0-1.6072,10.676,8.98364,8.98364,0,0,1,3.2143,3.3291,8.21536,8.21536,0,0,1,1.4924,4.477,8.99943,8.99943,0,0,1-2.6404,6.4286A8.33714,8.33714,0,0,1,9.06888,37.1939Zm26.28822,0a8.14867,8.14867,0,0,1-6.5433-3.2143,11.24888,11.24888,0,0,1-2.5255-7.1174,32.71354,32.71354,0,0,1,1.7219-9.8724,55.2679,55.2679,0,0,1,4.477-10.102A27.55924,27.55924,0,0,1,37.7679,0H45a44.21263,44.21263,0,0,0-3.6735,9.52806,52.25655,52.25655,0,0,0-1.6071,10.676,8.98364,8.98364,0,0,1,3.2143,3.3291,8.21519,8.21519,0,0,1,1.4923,4.477,8.99975,8.99975,0,0,1-2.6403,6.4286A8.33734,8.33734,0,0,1,35.3571,37.1939Z" fill="currentColor"/></svg>
